<?xml version="1.0" encoding="utf-8"?>
<!-- Generator: Adobe Illustrator 26.0.1, SVG Export Plug-In . SVG Version: 6.00 Build 0)  -->
<svg version="1.1" id="Слой_1" xmlns="http://www.w3.org/2000/svg" xmlns:xlink="http://www.w3.org/1999/xlink" x="0px" y="0px"
	 viewBox="0 0 566 407" style="enable-background:new 0 0 566 407;" xml:space="preserve">
<style type="text/css">
	.st0{clip-path:url(#SVGID_00000042720450736860692480000018084517743559952546_);}
	.st1{fill:#1D4ED7;}
	.st2{clip-path:url(#SVGID_00000090281534720166008420000000975218791822340243_);}
	.st3{clip-path:url(#SVGID_00000093176935849492219270000015060985309862168221_);}
	.st4{clip-path:url(#SVGID_00000072990685037810468170000001179882448944776624_);}
</style>
<g>
	<defs>
		<circle id="SVGID_1_" cx="87" cy="319.7" r="87.5"/>
	</defs>
	<clipPath id="SVGID_00000093859868934243136320000009798647880577742012_">
		<use xlink:href="#SVGID_1_"  style="overflow:visible;"/>
	</clipPath>
	<g style="clip-path:url(#SVGID_00000093859868934243136320000009798647880577742012_);">
		
			<rect x="5.2" y="383.6" transform="matrix(0.7071 -0.7071 0.7071 0.7071 -231.3269 212.8129)" class="st1" width="272" height="4"/>
	</g>
	<g style="clip-path:url(#SVGID_00000093859868934243136320000009798647880577742012_);">
		
			<rect x="-5.7" y="372.7" transform="matrix(0.7071 -0.7071 0.7071 0.7071 -226.8004 201.8848)" class="st1" width="272" height="4"/>
	</g>
	<g style="clip-path:url(#SVGID_00000093859868934243136320000009798647880577742012_);">
		
			<rect x="-16.6" y="361.8" transform="matrix(0.7071 -0.7071 0.7071 0.7071 -222.2739 190.9568)" class="st1" width="272" height="4"/>
	</g>
	<g style="clip-path:url(#SVGID_00000093859868934243136320000009798647880577742012_);">
		
			<rect x="-27.6" y="350.9" transform="matrix(0.7071 -0.7071 0.7071 0.7071 -217.7473 180.0288)" class="st1" width="272" height="4"/>
	</g>
	<g style="clip-path:url(#SVGID_00000093859868934243136320000009798647880577742012_);">
		
			<rect x="-38.5" y="339.9" transform="matrix(0.7071 -0.7071 0.7071 0.7071 -213.2208 169.1008)" class="st1" width="272" height="4"/>
	</g>
	<g style="clip-path:url(#SVGID_00000093859868934243136320000009798647880577742012_);">
		
			<rect x="-49.4" y="329" transform="matrix(0.7071 -0.7071 0.7071 0.7071 -208.6943 158.1728)" class="st1" width="272" height="4"/>
	</g>
	<g style="clip-path:url(#SVGID_00000093859868934243136320000009798647880577742012_);">
		
			<rect x="-60.3" y="318.1" transform="matrix(0.7071 -0.7071 0.7071 0.7071 -204.1677 147.2448)" class="st1" width="272" height="4"/>
	</g>
	<g style="clip-path:url(#SVGID_00000093859868934243136320000009798647880577742012_);">
		
			<rect x="-71.3" y="307.1" transform="matrix(0.7071 -0.7071 0.7071 0.7071 -199.6412 136.3167)" class="st1" width="272" height="4"/>
	</g>
	<g style="clip-path:url(#SVGID_00000093859868934243136320000009798647880577742012_);">
		
			<rect x="-82.2" y="296.2" transform="matrix(0.7071 -0.7071 0.7071 0.7071 -195.1147 125.3887)" class="st1" width="272" height="4"/>
	</g>
	<g style="clip-path:url(#SVGID_00000093859868934243136320000009798647880577742012_);">
		
			<rect x="-93.1" y="285.3" transform="matrix(0.7071 -0.7071 0.7071 0.7071 -190.5882 114.4607)" class="st1" width="272" height="4"/>
	</g>
	<g style="clip-path:url(#SVGID_00000093859868934243136320000009798647880577742012_);">
		
			<rect x="-104.1" y="274.4" transform="matrix(0.7071 -0.7071 0.7071 0.7071 -186.0616 103.5327)" class="st1" width="272" height="4"/>
	</g>
	<g style="clip-path:url(#SVGID_00000093859868934243136320000009798647880577742012_);">
		
			<rect x="-115" y="263.4" transform="matrix(0.7071 -0.7071 0.7071 0.7071 -181.5351 92.6047)" class="st1" width="272" height="4"/>
	</g>
</g>
<g>
	<defs>
		<circle id="SVGID_00000054960145644350039730000014207991600034756500_" cx="348" cy="319.4" r="87.5"/>
	</defs>
	<clipPath id="SVGID_00000059306035918592433690000004318836834115833517_">
		<use xlink:href="#SVGID_00000054960145644350039730000014207991600034756500_"  style="overflow:visible;"/>
	</clipPath>
	<g style="clip-path:url(#SVGID_00000059306035918592433690000004318836834115833517_);">
		
			<rect x="266.2" y="383.4" transform="matrix(0.7071 -0.7071 0.7071 0.7071 -154.6984 397.2957)" class="st1" width="272" height="4"/>
	</g>
	<g style="clip-path:url(#SVGID_00000059306035918592433690000004318836834115833517_);">
		
			<rect x="255.3" y="372.5" transform="matrix(0.7071 -0.7071 0.7071 0.7071 -150.1719 386.3676)" class="st1" width="272" height="4"/>
	</g>
	<g style="clip-path:url(#SVGID_00000059306035918592433690000004318836834115833517_);">
		
			<rect x="244.4" y="361.5" transform="matrix(0.7071 -0.7071 0.7071 0.7071 -145.6453 375.4396)" class="st1" width="272" height="4"/>
	</g>
	<g style="clip-path:url(#SVGID_00000059306035918592433690000004318836834115833517_);">
		
			<rect x="233.4" y="350.6" transform="matrix(0.7071 -0.7071 0.7071 0.7071 -141.1188 364.5116)" class="st1" width="272" height="4"/>
	</g>
	<g style="clip-path:url(#SVGID_00000059306035918592433690000004318836834115833517_);">
		
			<rect x="222.5" y="339.7" transform="matrix(0.7071 -0.7071 0.7071 0.7071 -136.5923 353.5836)" class="st1" width="272" height="4"/>
	</g>
	<g style="clip-path:url(#SVGID_00000059306035918592433690000004318836834115833517_);">
		
			<rect x="211.6" y="328.7" transform="matrix(0.7071 -0.7071 0.7071 0.7071 -132.0658 342.6556)" class="st1" width="272" height="4"/>
	</g>
	<g style="clip-path:url(#SVGID_00000059306035918592433690000004318836834115833517_);">
		
			<rect x="200.7" y="317.8" transform="matrix(0.7071 -0.7071 0.7071 0.7071 -127.5392 331.7276)" class="st1" width="272" height="4"/>
	</g>
	<g style="clip-path:url(#SVGID_00000059306035918592433690000004318836834115833517_);">
		
			<rect x="189.7" y="306.9" transform="matrix(0.7071 -0.7071 0.7071 0.7071 -123.0127 320.7996)" class="st1" width="272" height="4"/>
	</g>
	<g style="clip-path:url(#SVGID_00000059306035918592433690000004318836834115833517_);">
		
			<rect x="178.8" y="296" transform="matrix(0.7071 -0.7071 0.7071 0.7071 -118.4862 309.8716)" class="st1" width="272" height="4"/>
	</g>
	<g style="clip-path:url(#SVGID_00000059306035918592433690000004318836834115833517_);">
		
			<rect x="167.9" y="285" transform="matrix(0.7071 -0.7071 0.7071 0.7071 -113.9596 298.9435)" class="st1" width="272" height="4"/>
	</g>
	<g style="clip-path:url(#SVGID_00000059306035918592433690000004318836834115833517_);">
		
			<rect x="156.9" y="274.1" transform="matrix(0.7071 -0.7071 0.7071 0.7071 -109.4331 288.0155)" class="st1" width="272" height="4"/>
	</g>
	<g style="clip-path:url(#SVGID_00000059306035918592433690000004318836834115833517_);">
		
			<rect x="146" y="263.2" transform="matrix(0.7071 -0.7071 0.7071 0.7071 -104.9066 277.0875)" class="st1" width="272" height="4"/>
	</g>
</g>
<g>
	<defs>
		<circle id="SVGID_00000010990251043589787370000002547325957957678508_" cx="217.5" cy="87.5" r="87.5"/>
	</defs>
	<clipPath id="SVGID_00000010288998779482461360000006241280636844569748_">
		<use xlink:href="#SVGID_00000010990251043589787370000002547325957957678508_"  style="overflow:visible;"/>
	</clipPath>
	<g style="clip-path:url(#SVGID_00000010288998779482461360000006241280636844569748_);">
		
			<rect x="135.7" y="151.5" transform="matrix(0.7071 -0.7071 0.7071 0.7071 -28.9639 237.103)" class="st1" width="272" height="4"/>
	</g>
	<g style="clip-path:url(#SVGID_00000010288998779482461360000006241280636844569748_);">
		
			<rect x="124.8" y="140.6" transform="matrix(0.7071 -0.7071 0.7071 0.7071 -24.4374 226.175)" class="st1" width="272" height="4"/>
	</g>
	<g style="clip-path:url(#SVGID_00000010288998779482461360000006241280636844569748_);">
		
			<rect x="113.9" y="129.7" transform="matrix(0.7071 -0.7071 0.7071 0.7071 -19.9108 215.247)" class="st1" width="272" height="4"/>
	</g>
	<g style="clip-path:url(#SVGID_00000010288998779482461360000006241280636844569748_);">
		
			<rect x="102.9" y="118.7" transform="matrix(0.7071 -0.7071 0.7071 0.7071 -15.3843 204.319)" class="st1" width="272" height="4"/>
	</g>
	<g style="clip-path:url(#SVGID_00000010288998779482461360000006241280636844569748_);">
		<rect x="92" y="107.8" transform="matrix(0.7071 -0.7071 0.7071 0.7071 -10.8578 193.391)" class="st1" width="272" height="4"/>
	</g>
	<g style="clip-path:url(#SVGID_00000010288998779482461360000006241280636844569748_);">
		<rect x="81.1" y="96.9" transform="matrix(0.7071 -0.7071 0.7071 0.7071 -6.3312 182.463)" class="st1" width="272" height="4"/>
	</g>
	<g style="clip-path:url(#SVGID_00000010288998779482461360000006241280636844569748_);">
		<rect x="70.2" y="85.9" transform="matrix(0.7071 -0.7071 0.7071 0.7071 -1.8047 171.5349)" class="st1" width="272" height="4"/>
	</g>
	<g style="clip-path:url(#SVGID_00000010288998779482461360000006241280636844569748_);">
		<rect x="59.2" y="75" transform="matrix(0.7071 -0.7071 0.7071 0.7071 2.7218 160.6069)" class="st1" width="272" height="4"/>
	</g>
	<g style="clip-path:url(#SVGID_00000010288998779482461360000006241280636844569748_);">
		<rect x="48.3" y="64.1" transform="matrix(0.7071 -0.7071 0.7071 0.7071 7.2484 149.6789)" class="st1" width="272" height="4"/>
	</g>
	<g style="clip-path:url(#SVGID_00000010288998779482461360000006241280636844569748_);">
		<rect x="37.4" y="53.2" transform="matrix(0.7071 -0.7071 0.7071 0.7071 11.7749 138.7509)" class="st1" width="272" height="4"/>
	</g>
	<g style="clip-path:url(#SVGID_00000010288998779482461360000006241280636844569748_);">
		<rect x="26.4" y="42.2" transform="matrix(0.7071 -0.7071 0.7071 0.7071 16.3014 127.8229)" class="st1" width="272" height="4"/>
	</g>
	<g style="clip-path:url(#SVGID_00000010288998779482461360000006241280636844569748_);">
		<rect x="15.5" y="31.3" transform="matrix(0.7071 -0.7071 0.7071 0.7071 20.828 116.8949)" class="st1" width="272" height="4"/>
	</g>
</g>
<g>
	<defs>
		<circle id="SVGID_00000178182403350936233600000014787889212065127865_" cx="478.5" cy="87.3" r="87.5"/>
	</defs>
	<clipPath id="SVGID_00000076597072600780735140000003290132824537748406_">
		<use xlink:href="#SVGID_00000178182403350936233600000014787889212065127865_"  style="overflow:visible;"/>
	</clipPath>
	<g style="clip-path:url(#SVGID_00000076597072600780735140000003290132824537748406_);">
		
			<rect x="396.7" y="151.3" transform="matrix(0.7071 -0.7071 0.7071 0.7071 47.6646 421.5858)" class="st1" width="272" height="4"/>
	</g>
	<g style="clip-path:url(#SVGID_00000076597072600780735140000003290132824537748406_);">
		
			<rect x="385.8" y="140.3" transform="matrix(0.7071 -0.7071 0.7071 0.7071 52.1912 410.6578)" class="st1" width="272" height="4"/>
	</g>
	<g style="clip-path:url(#SVGID_00000076597072600780735140000003290132824537748406_);">
		
			<rect x="374.9" y="129.4" transform="matrix(0.7071 -0.7071 0.7071 0.7071 56.7177 399.7298)" class="st1" width="272" height="4"/>
	</g>
	<g style="clip-path:url(#SVGID_00000076597072600780735140000003290132824537748406_);">
		
			<rect x="363.9" y="118.5" transform="matrix(0.7071 -0.7071 0.7071 0.7071 61.2442 388.8018)" class="st1" width="272" height="4"/>
	</g>
	<g style="clip-path:url(#SVGID_00000076597072600780735140000003290132824537748406_);">
		<rect x="353" y="107.5" transform="matrix(0.7071 -0.7071 0.7071 0.7071 65.7708 377.8738)" class="st1" width="272" height="4"/>
	</g>
	<g style="clip-path:url(#SVGID_00000076597072600780735140000003290132824537748406_);">
		
			<rect x="342.1" y="96.6" transform="matrix(0.7071 -0.7071 0.7071 0.7071 70.2973 366.9458)" class="st1" width="272" height="4"/>
	</g>
	<g style="clip-path:url(#SVGID_00000076597072600780735140000003290132824537748406_);">
		
			<rect x="331.2" y="85.7" transform="matrix(0.7071 -0.7071 0.7071 0.7071 74.8238 356.0178)" class="st1" width="272" height="4"/>
	</g>
	<g style="clip-path:url(#SVGID_00000076597072600780735140000003290132824537748406_);">
		
			<rect x="320.2" y="74.8" transform="matrix(0.7071 -0.7071 0.7071 0.7071 79.3503 345.0898)" class="st1" width="272" height="4"/>
	</g>
	<g style="clip-path:url(#SVGID_00000076597072600780735140000003290132824537748406_);">
		
			<rect x="309.3" y="63.8" transform="matrix(0.7071 -0.7071 0.7071 0.7071 83.8769 334.1617)" class="st1" width="272" height="4"/>
	</g>
	<g style="clip-path:url(#SVGID_00000076597072600780735140000003290132824537748406_);">
		
			<rect x="298.4" y="52.9" transform="matrix(0.7071 -0.7071 0.7071 0.7071 88.4034 323.2337)" class="st1" width="272" height="4"/>
	</g>
	<g style="clip-path:url(#SVGID_00000076597072600780735140000003290132824537748406_);">
		<rect x="287.5" y="42" transform="matrix(0.7071 -0.7071 0.7071 0.7071 92.9299 312.3057)" class="st1" width="272" height="4"/>
	</g>
	<g style="clip-path:url(#SVGID_00000076597072600780735140000003290132824537748406_);">
		<rect x="276.5" y="31" transform="matrix(0.7071 -0.7071 0.7071 0.7071 97.4565 301.3777)" class="st1" width="272" height="4"/>
	</g>
</g>
</svg>
