<?xml version="1.0" encoding="utf-8"?>
<!-- Generator: Adobe Illustrator 26.0.2, SVG Export Plug-In . SVG Version: 6.00 Build 0)  -->
<svg version="1.1" id="svg" xmlns="http://www.w3.org/2000/svg" xmlns:xlink="http://www.w3.org/1999/xlink" x="0px" y="0px"
	 viewBox="0 0 400 386.9" style="enable-background:new 0 0 400 386.9;" xml:space="preserve">
<style type="text/css">
	.st0{fill:#04A6EB;}
	.st1{fill:#F40E8D;}
	.st2{fill:#F4C041;}
	.st3{fill:#6D4636;}
	.st4{fill:#4461FA;}
</style>
<g>
	<path class="st0" d="M212.7,223.5c48-18,95.8-17.9,143.4,1.2c6.5,2.6,12.8,5.8,18.6,9.6c7.8,5.1,11.9,12.3,7.1,21.5
		c-4.9,9.4-13.3,11.8-22.6,7.5c-17-7.8-34.1-15.2-52.8-17.9c-24.8-3.5-49.3-2.8-72.8,7.1c-30.4,8.4-53.5,27.1-72.7,51.4
		c-10-5.3-18.5-12.7-26.7-20.3C154.9,256.5,181.8,237.3,212.7,223.5z"/>
	<path class="st0" d="M218,144.2c-28.2-1.5-41-9.4-46.2-27.4c-4-13.9,1.4-30,13-38.7c15.2-11.5,29.9-10.2,53.5,5.1
		c8.4-14,12.9-29.3,16.5-44.9c0.8-3.6,1.5-7.3,2.1-11c1.4-9.2,6-14.9,15.9-13.6c10.9,1.5,13.5,10,11.9,18.8
		c-5,27.2-13.5,53.4-28,77.1c-4.8,7.8-8.7,15-7.9,24.4c0.4,4.1-1,8.3-1.7,12.4c-1.6,9.6-3.7,19.4-16.2,19
		C217.8,164.9,217.9,154.6,218,144.2z M220.5,110.7c-3-8.3-6.7-14.9-16.1-11.8c-5.4,1.8-7.9,7.3-4,12.3
		C206.1,118.6,212.9,116.8,220.5,110.7z"/>
	<path class="st1" d="M118.5,145.7c5.2-22.9,0.6-44.4-9.1-65.2c-3.4-7.3-4.5-14.2,1.3-20.8c8.6-9.9,21.7-7.5,28.4,5.5
		c14.1,27.5,18,56.5,12.9,86.9c-0.7,4.1-0.9,8.3-1.4,12.5c-11.9,30.8-27.3,59.1-56.4,77.4c-8.1-8.1-14.5-17.3-19.2-27.8
		C99.9,197.9,113.9,174.8,118.5,145.7z"/>
	<path class="st2" d="M75,214.1c4.7,10.5,11,19.7,19.2,27.8c11.6,15.6,25.1,29.4,40.1,41.8c8.2,7.7,16.7,15,26.7,20.3
		c21.6,15.9,44.7,27.7,72.4,26.7c-14.3,8.5-30.6,10.4-46.4,14.2c-26.5-12.5-53.1-24.6-75.8-43.8c-31.8-26.8-52.7-61.3-70.8-97.9
		c4.2-16.9,6.1-34.5,15.2-50C54.6,175.9,62.7,195.7,75,214.1z"/>
	<path class="st3" d="M134.2,283.7c-14.9-12.4-28.4-26.2-40.1-41.8c29.1-18.3,44.5-46.5,56.4-77.4c10,8,20,16,30.1,24
		c-4.8,7.7-6.6,15.5,0.4,22.8c7,7.4,15,5.4,22.9,1.7c2.9,3.5,5.8,6.9,8.7,10.4C181.8,237.3,154.9,256.5,134.2,283.7z"/>
	<path class="st4" d="M40.4,203.2c18.1,36.6,39,71,70.8,97.9c22.7,19.2,49.3,31.3,75.8,43.8c-14.5,4.9-29.2,9.1-44.3,11.6
		c-48.9-26.1-86-64.1-113.2-112C32.2,230.4,35.4,216.6,40.4,203.2z"/>
	<path class="st2" d="M29.5,244.4c27.2,47.9,64.3,86,113.2,112c-11.6,5.3-24.1,7.5-36.5,10c-40.1-15.1-68.5-42.9-87.9-80.5
		C20.8,271.8,24.5,257.9,29.5,244.4z"/>
	<path class="st3" d="M233.4,330.7c-27.8,1-50.9-10.8-72.4-26.7c19.2-24.3,42.3-43,72.7-51.4c6.5,13.4,13.5,26.5,16.7,41.2
		C254.1,311,249.3,321.6,233.4,330.7z"/>
	<path class="st1" d="M344.3,176.5c-20.4-0.3-38.1,7.3-54.6,18.6c-6.7,4.6-13.4,6.7-20.5,1.1c-7.7-6-7.6-15.5,0.1-23
		c25.6-24.7,85.4-34.4,118.8-19.4c8.8,3.9,12.1,10.2,9.6,19c-2.5,8.8-9.6,11.2-17.7,9.4C368.2,179.6,356.7,175.5,344.3,176.5z"/>
	<path class="st3" d="M75,214.1c-12.4-18.4-20.5-38.2-19.5-60.9c9.4-16.7,20.2-21.5,38.7-16.9c8.4,2.1,16.9,4.3,24.2,9.3
		C113.9,174.8,99.9,197.9,75,214.1z"/>
	<path class="st4" d="M18.2,285.9c19.5,37.6,47.9,65.4,87.9,80.5c-14,4-27.9,7.9-41.9,11.8C42.4,363.8,23.5,346.2,7.8,325
		C10.2,311.7,13.7,298.7,18.2,285.9z"/>
	<path class="st2" d="M7.8,325c15.7,21.1,34.5,38.8,56.5,53.2c-1.8,0.6-3.5,1.3-5.3,1.9c-17.1,5.6-34.2,8.5-48.1-6.6
		C-2.9,358.5,0.7,341.7,7.8,325z"/>
	<path class="st1" d="M327.8,64.2c9.9,0.8,15.8,6.5,15.8,16.1c0,9.7-6.2,15.5-15.9,16.2c-9,0.7-17.6-8-16.7-16.9
		C312.1,70,317.9,64.8,327.8,64.2z"/>
	<path class="st1" d="M58.1,64.2c9.7,0.2,15.8,5.7,16.4,15.2c0.6,9.6-5,15.8-14.8,17.1c-8.9,1.1-18.1-7.1-17.5-15.9
		C42.8,71.3,47.7,65,58.1,64.2z"/>
	<path class="st0" d="M204,213.1c-8,3.7-15.9,5.6-22.9-1.7c-7-7.4-5.3-15.1-0.4-22.8c8.1-4.9,16.4-6.6,23.8,0.9
		C212,197.2,209.2,205.3,204,213.1z"/>
	<path class="st2" d="M135.8,2.2c9.3,0.5,14.1,5.1,14.4,13c0.3,9.2-6,13.7-14.2,13.4c-7.6-0.3-13.3-5.1-12.8-13.6
		C123.7,7.1,128.7,2.7,135.8,2.2z"/>
	<path class="st2" d="M307.8,303.6c1.1-6.8,5.2-11.9,13.5-11.6c9,0.4,13.4,6.5,12.9,14.7c-0.5,8.6-6.3,13.4-15,12.4
		C311.1,318.2,307.4,312.8,307.8,303.6z"/>
</g>
</svg>
