<?xml version="1.0" encoding="utf-8"?>
<!-- Generator: Adobe Illustrator 26.0.2, SVG Export Plug-In . SVG Version: 6.00 Build 0)  -->
<svg version="1.1" id="Слой_1" xmlns="http://www.w3.org/2000/svg" xmlns:xlink="http://www.w3.org/1999/xlink" x="0px" y="0px"
	 viewBox="0 0 100 100.3" style="enable-background:new 0 0 100 100.3;" xml:space="preserve">
<style type="text/css">
	.st0{fill:#FFFFFF;}
	.st1{fill:#1D4ED7;}
</style>
<g>
	<path d="M100,90.3c0,5.5-4.5,10-10,10H10c-5.5,0-10-4.5-10-10v-80c0-5.5,4.5-10,10-10h80c5.5,0,10,4.5,10,10V90.3z"/>
</g>
<g>
	<path class="st0" d="M49.9,20.2V43h-6V30.7L38.2,43h-5.7l-6.1-12.6V43h-6V20.2h7l7.9,16.7L43,20.2H49.9z"/>
	<path class="st0" d="M44.8,57.3v5.3h-9.3v17.6h-6V62.6H20v-5.3H44.8z M20,62.6v-5.3h24.8L20,62.6z"/>
	<path class="st1" d="M54.1,80.2l17.6-60H80l-17.6,60H54.1z"/>
</g>
</svg>
