<?xml version="1.0" encoding="utf-8"?>
<!-- Generator: Adobe Illustrator 26.0.1, SVG Export Plug-In . SVG Version: 6.00 Build 0)  -->
<svg version="1.1" id="Слой_1" xmlns="http://www.w3.org/2000/svg" xmlns:xlink="http://www.w3.org/1999/xlink" x="0px" y="0px"
	 viewBox="0 0 666.5 67" style="enable-background:new 0 0 666.5 67;" xml:space="preserve">
<style type="text/css">
	.st0{fill:#191919;}
</style>
<g>
	<polygon class="st0" points="1,67 29.3,0 348.1,0 319.8,67 	"/>
	<g>
		<path d="M120.7,18.7v29.6h-9.8V34.9l-6.5,13.4h-9.1l-7-13.5v13.5h-9.9V18.7h11.3l10.1,20.4l9.9-20.4H120.7z"/>
		<path d="M158.4,18.7v8h-12.5v21.6h-9.8V26.7h-12.6v-8H158.4z M123.5,26.7v-8h35L123.5,26.7z"/>
		<path d="M196.3,18.7l-14.9,25.1c-1,1.8-2.9,3-5.8,3.7c-2.9,0.7-5.9,1-9,0.9v-7.2c1.5,0,2.5-0.1,3.1-0.2c0.6-0.2,1-0.4,1.1-0.6
			c0.1-0.2,0.1-0.6,0.1-1.2l-12.1-20.4h10.4l8.2,14.9l8.4-14.9H196.3z"/>
		<path d="M195.8,25.5c1.7-2.4,4.1-4.2,7.2-5.6c3-1.3,6.4-2,10.1-2c3.3,0,6.3,0.5,9,1.6c2.7,1.1,4.9,2.5,6.6,4.4
			c1.7,1.9,2.8,4.1,3.4,6.7h-10.2c-0.4-1.1-1.1-2-2-2.8c-0.9-0.8-2-1.4-3.2-1.8c-1.2-0.4-2.3-0.6-3.4-0.6c-1.6,0-3.1,0.3-4.6,1
			c-1.5,0.6-2.7,1.6-3.6,2.8c-0.9,1.2-1.4,2.6-1.4,4.3c0,1.7,0.5,3.1,1.4,4.3c0.9,1.2,2.1,2.1,3.5,2.8c1.5,0.6,3,0.9,4.7,0.9
			c1.8,0,3.5-0.4,5.1-1.3s2.7-2.1,3.5-3.8h10.3c-0.6,2.5-1.7,4.8-3.4,6.7c-1.7,1.9-3.9,3.4-6.5,4.4s-5.6,1.6-8.9,1.6
			c-3.7,0-7-0.7-10-2c-3-1.4-5.4-3.2-7.2-5.6c-1.8-2.4-2.6-5-2.6-7.9C193.2,30.6,194.1,27.9,195.8,25.5z"/>
		<path d="M244.3,18.7v18.4l16.4-18.4h9.8v29.6h-9.8V29.9l-16.4,18.4h-9.9V18.7H244.3z"/>
	</g>
</g>
<g>
	<path class="st0" d="M453.9,18.7v8h-12.5v21.6h-9.8V26.7H419v-8H453.9z M419,26.7v-8h35L419,26.7z"/>
	<path class="st0" d="M485,36.8h-18.5v4.5l21.8-0.2v7.2h-31.7V18.7h31.7l0,7.2h-21.9v3.9H485V36.8z"/>
	<path class="st0" d="M492.9,25.5c1.7-2.4,4.1-4.2,7.2-5.6c3-1.3,6.4-2,10.1-2c3.3,0,6.3,0.5,9,1.6c2.7,1.1,4.9,2.5,6.6,4.4
		c1.7,1.9,2.8,4.1,3.4,6.7h-10.2c-0.4-1.1-1.1-2-2-2.8c-0.9-0.8-2-1.4-3.2-1.8c-1.2-0.4-2.3-0.6-3.4-0.6c-1.6,0-3.1,0.3-4.6,1
		c-1.5,0.6-2.7,1.6-3.6,2.8c-0.9,1.2-1.4,2.6-1.4,4.3c0,1.7,0.5,3.1,1.4,4.3c0.9,1.2,2.1,2.1,3.5,2.8c1.5,0.6,3,0.9,4.7,0.9
		c1.8,0,3.5-0.4,5.1-1.3c1.6-0.9,2.7-2.1,3.5-3.8H529c-0.6,2.5-1.7,4.8-3.4,6.7c-1.7,1.9-3.9,3.4-6.5,4.4c-2.6,1-5.6,1.6-8.9,1.6
		c-3.7,0-7-0.7-10-2c-3-1.4-5.4-3.2-7.2-5.6c-1.8-2.4-2.6-5-2.6-7.9C490.3,30.6,491.1,27.9,492.9,25.5z"/>
	<path class="st0" d="M541.4,29.2h15.8V18.7h9.8v29.6h-9.8V37h-15.8v11.3h-9.9V18.7h9.9V29.2z"/>
</g>
</svg>
