<?xml version="1.0" encoding="utf-8"?>
<!-- Generator: Adobe Illustrator 26.0.2, SVG Export Plug-In . SVG Version: 6.00 Build 0)  -->
<svg version="1.1" id="Слой_1" xmlns="http://www.w3.org/2000/svg" xmlns:xlink="http://www.w3.org/1999/xlink" x="0px" y="0px"
	 viewBox="0 0 486.1 63.7" style="enable-background:new 0 0 486.1 63.7;" xml:space="preserve">
<style type="text/css">
	.st0{fill:#FFFFFF;}
	.st1{fill:#1D4ED7;}
</style>
<g>
	<path class="st0" d="M54.2,58.1h-9.9L42.8,27L30.2,51.6H24L11.3,26.8L9.9,58.1H0l2.3-49h10.4L27.2,37L41.5,9.1h10.4L54.2,58.1z"/>
	<path class="st0" d="M96.2,9.1v9H82.5v40h-9.9v-40H58.9v-9H96.2z"/>
	<path class="st0" d="M131.5,9.1h10.4l-23,49h-15.1v-9h9.1l2.8-6.1L99.9,9.1h10.4l10.6,23L131.5,9.1z"/>
	<path class="st0" d="M191.5,41.6c-1.6,5.1-4.5,9.2-8.8,12.4c-4.2,3.2-9.1,4.8-14.6,4.8c-7,0-12.9-2.4-17.6-7.3
		c-4.8-4.9-7.1-10.8-7.1-17.8c0-7,2.4-13,7.1-17.9c4.8-4.9,10.6-7.4,17.6-7.4c5.5,0,10.4,1.6,14.7,4.8c4.3,3.2,7.2,7.4,8.8,12.5H181
		c-1.3-2.3-3.1-4.1-5.4-5.5c-2.3-1.4-4.8-2-7.5-2c-4.2,0-7.8,1.5-10.6,4.5c-2.8,3-4.3,6.6-4.3,10.9c0,4.2,1.4,7.9,4.3,10.8
		c2.8,3,6.4,4.5,10.6,4.5c2.7,0,5.2-0.7,7.4-2c2.2-1.3,4-3.1,5.3-5.4H191.5z"/>
	<path class="st0" d="M238.5,9.1v49h-9.9V25.7l-19.2,32.4h-11.5v-49h9.9v32.3l19.2-32.3H238.5z"/>
	<path class="st1" d="M282.2,0h9.3l-18.2,63.7H264L282.2,0z"/>
	<path class="st0" d="M350.6,9.1v9h-13.7v40H327v-40h-13.7v-9H350.6z"/>
	<path class="st0" d="M355.9,58.1v-49h32.3v9.3h-22.4V29h19.1v8.6h-19.1v11.2h22.4v9.3H355.9z"/>
	<path class="st0" d="M440.4,41.6c-1.6,5.1-4.5,9.2-8.8,12.4c-4.2,3.2-9.1,4.8-14.6,4.8c-7,0-12.9-2.4-17.6-7.3s-7.1-10.8-7.1-17.8
		c0-7,2.4-13,7.1-17.9S410,8.4,417,8.4c5.5,0,10.4,1.6,14.7,4.8c4.3,3.2,7.2,7.4,8.8,12.5h-10.6c-1.3-2.3-3.1-4.1-5.4-5.5
		c-2.3-1.4-4.8-2-7.5-2c-4.2,0-7.8,1.5-10.6,4.5c-2.8,3-4.3,6.6-4.3,10.9c0,4.2,1.4,7.9,4.3,10.8c2.8,3,6.4,4.5,10.6,4.5
		c2.7,0,5.2-0.7,7.4-2c2.2-1.3,4-3.1,5.3-5.4H440.4z"/>
	<path class="st0" d="M476.2,9.1h9.9v49h-9.9V37.2h-19.9v20.9h-9.9v-49h9.9v19.5h19.9V9.1z"/>
</g>
</svg>
