<?xml version="1.0" encoding="utf-8"?>
<!-- Generator: Adobe Illustrator 26.0.2, SVG Export Plug-In . SVG Version: 6.00 Build 0)  -->
<svg version="1.1" id="Слой_1" xmlns="http://www.w3.org/2000/svg" xmlns:xlink="http://www.w3.org/1999/xlink" x="0px" y="0px"
	 viewBox="0 0 266.3 273.6" style="enable-background:new 0 0 266.3 273.6;" xml:space="preserve">
<style type="text/css">
	.st0{fill:#021127;}
	.st1{fill:#010306;}
	.st2{fill:#021024;}
	.st3{fill:#010307;}
	.st4{fill:#020E20;}
	.st5{fill:#010915;}
	.st6{fill:#010811;}
	.st7{fill:#020B19;}
	.st8{fill:#01050B;}
	.st9{fill:#01060E;}
	.st10{fill:#020D1D;}
	.st11{fill:#020F22;}
	.st12{fill:#010A15;}
	.st13{fill:#020D1C;}
	.st14{fill:#0F3763;}
	.st15{fill:#005AA1;}
	.st16{fill:#0E345C;}
	.st17{fill:#0F355E;}
	.st18{fill:#0D2E52;}
	.st19{fill:#0F3560;}
	.st20{fill:#010203;}
	.st21{fill:#02060B;}
	.st22{fill:#030911;}
	.st23{fill:#030B14;}
	.st24{fill:#0D3057;}
	.st25{fill:#081E35;}
	.st26{fill:#09203A;}
	.st27{fill:#081C32;}
	.st28{fill:#091F37;}
	.st29{fill:#07192D;}
	.st30{fill:#061627;}
	.st31{fill:#0A2442;}
	.st32{fill:#040F1B;}
	.st33{fill:#051322;}
	.st34{fill:#0B2848;}
	.st35{fill:#081B2E;}
	.st36{fill:#09213A;}
	.st37{fill:#061424;}
	.st38{fill:#0A2441;}
	.st39{fill:#3992CB;}
	.st40{fill:#3A93CC;}
	.st41{fill:#3992CA;}
	.st42{fill:#3991C9;}
	.st43{fill:#3890C9;}
	.st44{fill:#368AC0;}
	.st45{fill:#378EC6;}
	.st46{fill:#388EC6;}
	.st47{fill:#3282B8;}
	.st48{fill:#3993CC;}
	.st49{fill:#3484B7;}
	.st50{fill:#0B2849;}
	.st51{fill:#28658C;}
	.st52{fill:#154066;}
	.st53{fill:#183D55;}
	.st54{fill:#1C4662;}
	.st55{fill:#092039;}
	.st56{fill:#23597C;}
	.st57{fill:#1E4F72;}
	.st58{fill:#2A6B94;}
</style>
<g>
	<path class="st0" d="M0,220.5C0,149.4,0,78.2,0,7c0.8-3.8,2.9-6.5,7-7c84.1,0,168.2,0,252.3,0c3.8,0.8,6.4,2.9,7,7
		c0,70.2,0,140.4,0,210.6c-3.7,2.7-7.9,1.8-12,1.7c-16.4-0.2-32.8-1.6-49.2,0c-7.6,0.7-15.3,0.4-22.8-0.5c-5-0.6-9.9,1-14.9-0.1
		c-0.6-0.3-1.1-0.6-1.5-1.1c-0.8-1.1-0.8-2.4-0.9-3.7c-0.6-2.5-0.4-5-0.4-7.4c0-53.6,0-107.1,0-160.7c0-1.3,0-2.7,0-4
		c-0.1-6-0.7-6.7-6.6-6.7c-48.4,0-96.7,0-145.1,0c-6.2,0-6.7,0.6-6.7,7.5C6,96.7,6,151,6,205.2c0,2.5,0.2,5-0.3,7.5
		c-0.2,1.2,0.2,2.4,0,3.7c-0.3,2.3,0.6,4.6-0.2,6.9c-0.1,1.1-0.2,2.2-1,3.1c-2.1,1-2.5-0.6-2.8-2C1.4,223,1.3,221.5,0,220.5z"/>
	<path class="st1" d="M166.5,273.4c-50.9,0-101.8-0.1-152.8,0.2c-6.8,0-11.6-1.3-13.8-8.1c0-3,0-6,0-9c1.7-1.3,3.1-0.9,4.5,0.6
		c0.5,0.7,0.8,1.5,0.9,2.3c0.2,1.1,0.2,2.1,0.1,3.2c-0.1,2.7,1.6,3.1,3.8,3.5c4.7,0.7,9.3-0.1,13.9,0c21.9,0.2,43.8,0.3,65.6,0.3
		c17.1,0,34.2-0.5,51.3,0.3c6,0.3,11.9-0.3,17.9-0.5c3.3-0.1,6.7-0.3,9.2,2.6C168.1,270.4,167.8,272,166.5,273.4z"/>
	<path class="st2" d="M166.6,217.5c10.5-1.8,21,0.2,31.5,0c10.3-0.2,20.5-1.3,30.8-1c12.5,0.4,24.9,0.7,37.4,1c0,2.7,0,5.3,0,8
		c-1.8,1.9-4.1,2-6.4,2c-29.1,0-58.2,0-87.2,0c-2,0-4,0-5.8-1.2c-1.2-0.9-1.6-2.1-1.7-3.5C164.9,220.9,164.7,218.9,166.6,217.5z"/>
	<path class="st3" d="M266.3,265.5c-0.3,0-0.7,0-1,0c-2,1-4.1,1-6.3,1c-28.4-0.1-56.7,0-85.1,0c-2.3,0-4.7,0.2-6.8-1
		c-0.6-0.3-1.1-0.8-1.4-1.3c-0.8-1.6-0.8-3.2-0.4-4.8c0.2-1,0.7-1.8,1.5-2.5c1.4-1,3-1.3,4.7-1.3c13.4,0.1,26.8-0.3,40.3-0.1
		c10.9,0.2,21.8-0.1,32.7-0.3c5.9-0.1,11.9,0.2,17.9,0.4c1.6,0.1,2.9,0.8,4,1.9C266.3,260.1,266.3,262.8,266.3,265.5z"/>
	<path class="st4" d="M166.6,225.5c33.2,0,66.4,0,99.6,0c0,2,0,4,0,6c-1.8,2-4.2,1.6-6.5,1.6c-19.7,0.1-39.4,0-59.1-0.2
		c-2.3,0-4.6,0.5-6.9,0.8c-6.8-1.2-13.7-0.1-20.5-0.7c-2.3-0.2-4.7,0.5-6.7-1c-1.5-1.5-1.6-3.3-1-5.2
		C165.7,226.4,166.1,225.9,166.6,225.5z"/>
	<path class="st5" d="M266.3,239.5c0,1.7,0,3.3,0,5c-1.3,2.5-3.6,2.5-6,2.4c-22.7-0.7-45.3-0.4-68-0.3c-8.4,0.1-16.8,0.7-25.2-1.1
		c-0.5-0.3-1-0.7-1.3-1.2c-0.5-0.8-0.6-1.7-0.6-2.6c0-0.6,0-1.2,0.1-1.7c0.2-0.9,0.6-1.6,1.3-2.1c3.1-1.5,6.5-1.2,9.8-1.1
		c15.8,0.6,31.7-0.3,47.5,0.2c12.6,0.4,25.1-0.5,37.7,0.3C263.4,237.5,265,238.1,266.3,239.5z"/>
	<path class="st6" d="M166.6,244.5c10,0,20,0,30,0c19.5,0,39,0.1,58.5-0.1c3.7,0,7.4,2.5,11.1,0.1c0,1.7,0,3.3,0,5
		c-4.7,3.4-10.1,2.2-15.4,2.3c-14.2,0.2-28.4-0.3-42.5,0c-12.7,0.3-25.4-0.1-38.1-0.5c-1.2,0-2.3-0.3-3.3-0.9
		c-0.5-0.3-0.9-0.7-1.2-1.2c-0.5-1.1-0.6-2.2-0.2-3.4C165.7,245.3,166.1,244.8,166.6,244.5z"/>
	<path class="st7" d="M266.3,239.5c-9.3,0.1-18.5-1-27.9-0.3c-10.4,0.8-20.9-0.5-31.3-0.5c-7.9,0-15.9,0.9-23.8,0.5
		c-5.5-0.3-11.1,0-16.6-0.7c-0.5-0.4-0.8-0.8-1-1.4c-0.2-1.2,0.1-2.3,1-3.1c5.3-2.3,10.9-0.9,16.2-0.7c8.3,0.4,16.5,0,24.7-0.2
		c7.5,0.2,15.1-0.3,22.6,0.1c10.6,0.5,21.3-0.6,31.9,0.1c1.5,0.1,2.9,0.4,4.2,1.3C266.3,236.2,266.3,237.8,266.3,239.5z"/>
	<path class="st8" d="M266.3,257.5c-33.2,0-66.5,0-99.7,0c-0.2-0.2-0.4-0.5-0.6-0.7c-0.6-1.7-0.3-3.1,1.2-4.2c4.6-2,9.5-1,14.2-1
		c12.2,0,24.3,0.2,36.5,0.1c14.5-0.1,29,0.4,43.5-0.1c1.9-0.1,3.6,0.5,4.9,1.9C266.3,254.8,266.3,256.1,266.3,257.5z"/>
	<path class="st9" d="M266.3,253.5c-33.2,0-66.5,0-99.7,0c-0.2-0.1-0.4-0.3-0.5-0.4c-0.4-0.6-0.6-1.2-0.5-1.9c0.1-0.7,0.4-1.3,1-1.7
		c33.2,0.4,66.5,0.8,99.7,0C266.3,250.8,266.3,252.2,266.3,253.5z"/>
	<path class="st10" d="M266.3,234.5c-4.8,1.6-9.7-0.4-14.5,0.2c-10.4,1.2-20.8-1.1-31.2,0.4c-3.9,0.6-8-0.4-12.1-0.6
		c-2.8-1.6-5.8-0.4-8.7-0.3c-2.3,0-4.6,0.4-6.3-1.7c1.7-1.6,3.8-1,5.7-1c22.4,0,44.7,0,67.1,0C266.3,232.5,266.3,233.5,266.3,234.5z
		"/>
	<path class="st11" d="M0,220.5c4.7-0.2,1.9,4.5,3.9,6c0.7,0.4,1.1,1.1,1.4,1.9c0.3,1.3,0.4,2.6-0.1,3.9c-0.2,0.5-0.5,0.9-0.8,1.3
		c-2.2,0.9-3.1-1-4.3-2C0,227.9,0,224.2,0,220.5z"/>
	<path class="st12" d="M0,247.5c0-3.3,0-6.7,0-10c2.2-1.4,3.4,0.1,4.7,1.5c0.3,0.5,0.5,1,0.6,1.5c0.2,1.1,0.2,2.1,0.2,3.2
		c0.2,1.7,0,3.3-1.1,4.6C2.6,249.5,1.3,248.7,0,247.5z"/>
	<path class="st9" d="M0,247.5c1.4-0.1,2.7,0.3,4,1c0.2,0.1,0.4,0.3,0.6,0.4c0.6,0.8,0.8,1.7,0.9,2.7c0,0.9,0,1.9,0,2.8
		c0,1-0.2,1.9-0.8,2.7c-0.2,0.1-0.4,0.3-0.6,0.4c-1.2-0.7-2.5-1.1-4-1C0,253.5,0,250.5,0,247.5z"/>
	<path class="st13" d="M4,239.5c-1.3-0.7-2.3-2-4-2c0-2,0-4,0-6c1.8-0.3,2.9,0.8,3.9,2c0.7,0.4,1.1,1.1,1.3,1.8
		c0.1,0.8,0.1,1.5,0,2.3C5.1,238.5,4.7,239.1,4,239.5z"/>
	<path class="st14" d="M4.1,213.6C4,155,4,96.5,3.9,38c0-4,1.5-5.1,5.3-5.1c50.7,0.1,101.3,0.1,152,0c3.8,0,5.3,1.1,5.3,5.1
		c-0.1,58.9-0.1,117.7-0.2,176.6c-4.7,3.2-10,1.7-14.9,1.7c-21.9-0.3-43.8,0-65.7-0.1c-1.8,0-3.7,0.1-5.2,1.4
		c-0.6,0.3-1.2,0.4-1.8,0.3c-0.8-0.5-1.2-1.3-1.4-2.2c-0.5-3-2.3-4.1-5.2-4.1c-13.8,0-27.7,0.1-41.5,0c-3.2,0-4.7,1.9-6.1,4.2
		c-1.2,1-2.5,1.2-3.9,0.8c-1.9-0.7-1.8-2.8-3-4c-0.9-0.9-1.8-0.9-2.8-0.1c-0.9,0.8-1.6,1.9-2.8,2.3C9.3,215.2,6.5,215.8,4.1,213.6z"
		/>
	<path class="st15" d="M263.7,26.5c-1.7,1.1-3.2,0.7-4.6,0.7c-28.4,0-56.8,0-85.2,0c-6.8,0-7.4-0.6-7.4-7.4c0-3.3,0.1-6.7,0-10
		c-0.2-4.7,2.4-5.9,6.6-5.9c21.1,0.1,42.2,0,63.3,0c6.1,0,12.3,0.1,18.4,0c4.5-0.1,6.2,2,6.4,6.4C261.3,15.8,259.8,21.6,263.7,26.5z
		"/>
	<path class="st16" d="M78.9,217.6c0.3,0,0.6,0,0.9,0c2.5-1.7,5.4-1.5,8.1-1.5c19.9,0,39.7-0.1,59.6,0.1c4.6,0.1,9.2-0.3,13.8,0
		c1.8,0.1,3.7-0.2,5.1,1.4c0,0,0.2-0.1,0.2-0.1c-0.1,1.7-0.1,3.3-0.2,5c-2.1,2.2-4.8,1.8-7.4,2c-12.4,0.9-24.7-0.2-37.1,0
		c-5.6,0-11.2,1.3-16.8,0.4c-12.4-0.8-24.8-0.3-37.2-0.3c-15.5-0.1-31.1,0-46.6,0c-2.6,0-5.3,0-7.8,1.1c-3.5,0.9-7,1.4-9.6-2.1
		c0-2.3,0-4.6,0-7c2.9-2,5.8-1.2,8.8-0.3c1.4,0.6,2.8,1.1,4.4,0.4c0.4-0.2,0.7-0.4,1.1-0.5c0.5-0.3,1.1-0.6,1.7-0.6
		c1.3,0,2.5,0,3.8,0c0.6,0.1,1.2,0.3,1.7,0.6c2.2,1,4.5,0.9,6.8,0.9c13.7,0,27.5,0,41.2,0C75.3,217.1,77.1,216.7,78.9,217.6z"/>
	<path class="st17" d="M166.4,217.6c-6.3,0.3-12.6,0.5-19,0.1c-10-0.6-20.1-0.2-30.2-0.2c-9.2,0-18.5,0.1-27.7,0
		c-3.2,0-6.5,1.6-9.7,0c0-3.8,2.8-3,5-3c25.4,0,50.8,0,76.2,0c1.8,0,3.7,0,5.5,0C166.4,215.6,166.4,216.6,166.4,217.6z"/>
	<path class="st18" d="M4.1,223.5c2.9,1,5.9,1.1,8.9,1c1.3,1.4,1.3,2.9,0.2,4.4c-3.1,2-6.2,2.1-9.1-0.4c0-0.7-0.1-1.3-0.1-2
		C4,225.5,4,224.5,4.1,223.5z"/>
	<path class="st19" d="M13,217.6c-3-0.3-6-0.7-8.9-1c0-1,0-2,0-3c2.9,0,5.9,0,8.8,0C14.2,214.9,14.2,216.2,13,217.6z"/>
	<path class="st20" d="M166.5,264.5c31,0,62,0,93,0c1.9,0,4-0.6,5.7,1c-1.2,6.2-3.3,8-9.8,8c-29.6,0-59.3,0-88.9,0c0-1.7,0-3.3,0-5
		C165.5,267.1,165.3,265.8,166.5,264.5z"/>
	<path class="st21" d="M166.5,264.5c0,1.3,0,2.7,0,4c-7-1.4-14.1,0.3-21.1,0c-18.6-0.9-37.3,0.3-56-0.6c-12.8-0.6-25.8,0-38.6,0.1
		c-12.2,0.1-24.4-1.7-36.6,0.3c-2.6,0.4-5.4-0.4-8.3-0.3c-3.5,0.2-1.5-3.5-2.1-5.5c4.4-2.6,9.2-0.7,13.6-0.5
		c9.1,0.4,18.2-0.5,27.3-0.5c14,0,28,0.3,42,0.2c16.8-0.1,33.6-0.4,50.4,0c8.3,0.2,16.6,0,24.8,0c1.8,0,3.3,0.4,4.5,1.7
		C166.5,263.8,166.5,264.1,166.5,264.5z"/>
	<path class="st22" d="M166.5,263.5c-9.3,0-18.6-0.2-27.9,0.1c-13.2,0.3-26.3-0.1-39.5,0.2c-14.6,0.3-29.3-0.2-44-0.6
		c-9.7-0.3-19.5,0.7-29.3,0.9c-7.2,0.1-14.7,0.5-21.9-1.5c0-1,0-2,0-3c3.9-2.9,8.4-1.4,12.6-1.3c10.6,0.2,21.2-0.5,31.7-0.1
		c16.5,0.6,33,0.4,49.5,0.3c20.7-0.1,41.4,0,62.2-0.4c2.3,0,4.7-0.5,6.6,1.5C166.5,260.8,166.5,262.1,166.5,263.5z"/>
	<path class="st23" d="M166.5,259.5c-54.2,0-108.4,0-162.5,0c0-0.7,0-1.3,0-2c0,0,0,0,0,0c3.8-3.5,8.6-2.1,12.8-2
		c4,0.2,7.9-0.4,11.8-0.3c15.5,0.4,31,0.8,46.4,0.3c17.8-0.5,35.6,0.3,53.4-0.2c10.6-0.3,21.4-0.5,32,0.2c2.1,0.1,4.4,0.1,6,1.9
		c0,0,0,0,0,0C166.5,258.1,166.5,258.8,166.5,259.5z"/>
	<path class="st24" d="M105.6,223.6c13.4-0.9,26.7-1.1,40.2-0.3c6.7,0.4,13.7-0.6,20.6-0.7c0.1,1,0.1,2,0.2,3c0,0.3-0.1,0.7-0.1,1
		c-1.8,2.5-4.6,2.6-7.2,2.4c-12.7-0.9-25.5,0.6-38.2-0.2c-3-0.2-5.9,0.7-8.9,0.5c-2.4-0.2-5,0.1-7-1.9
		C104.5,226,104.4,224.7,105.6,223.6z"/>
	<path class="st18" d="M105.7,227.5c9.8-0.1,19.7,0.3,29.4-0.6c10.5-0.9,20.9,1.8,31.3-0.4c0,1.7,0.1,3.3,0.1,5
		c0.3,0.6,0.1,1.1-0.4,1.6c-1.8,1.2-3.9,1.1-5.8,0.9c-9-1-18,0.1-27.1-0.4c-13.9-0.8-27.9,1.1-41.8,0.3c-12.3-0.7-24.6,0.3-37-0.1
		c-8-0.3-16.2-0.6-24.2,0.8c-0.6,0.1-1.2,0.1-1.8,0c-5-1-10-0.3-15-0.5c-3.2-0.5-6.8,1.2-9.7-1.5c0-1.3,0-2.6,0-4c3,0,6.1,0,9.1,0
		c0.9-0.3,1.8-0.3,2.7-0.1c2.3,0.6,4.6,0.6,6.9,0.6c24,0,48.1,0,72.1,0c2.5,0,5,0,7.3-1C103.4,227.7,104.5,227.4,105.7,227.5z"/>
	<path class="st10" d="M166.5,232.5c0-0.3,0.1-0.7,0.1-1c8.9,0.7,18-0.9,26.9,1c4,0.1,7.9,1.8,12.1,0.4c1-0.3,2.1,0.6,2.9,1.6
		c-13.9,1.6-27.9-0.1-41.8,0c-0.2-0.1-0.3-0.3-0.5-0.4C165.9,233.5,166,233,166.5,232.5z"/>
	<path class="st25" d="M4,243.5c0-1,0-2,0-3c3.3-2,7-1.1,10.5-1.5c4.6,0.4,9.2-0.6,13.9-0.3c2.3,0.8,4.6,0.3,6.9,0.3
		c17,0.3,34,0,51.1,0c8.4-0.3,16.9-0.1,25.2,0.5c9.8,0.7,19.5-0.7,29.2,0.4c1.7,0,3.3,0,5,0c0.9,0,1.8,0,2.6,0c4.2,0,8.4,0,12.6,0
		c1.9,0,3.9-0.1,5.4,1.5c0,0.7,0,1.3,0,2c-1.6,1.6-3.6,1.5-5.6,1.5c-21.1,0-42.1,0.4-63.2-0.2c-7.2-0.2-14.4,1.3-21.6-0.6
		c-2.6-0.7-5.5,1.1-8.3,0.9c-11.4,0.9-22.9,0.2-34.3,0.4c-6.1,0.1-12.3-0.1-18.4,0.1c-0.6,0.1-1.2,0.2-1.8,0.1
		C10.1,245.2,6.6,246.1,4,243.5z"/>
	<path class="st26" d="M86.8,240.5c-9.4,1.6-18.9,0.1-28.4,0.5c-9.7,0.5-19.6-0.2-29.5-0.6c-0.5-1.8,0.1-3,1.6-3.9
		c2.1-0.7,4.3-0.5,6.4-0.5c16.1,0,32.2-0.1,48.2,0c24.9,0.2,49.9-0.1,74.8,0c2.3,0,4.7-0.5,6.6,1.5c0,0.3,0.1,0.7,0.1,1
		c0,0.7-0.1,1.3-0.1,2c-3.1,1.1-6.3,0.3-9.5,0.5c-4.8-0.8-9.6-0.6-14.4-0.1c-0.9,0.2-1.7,0.2-2.6-0.2
		C122.3,240.5,104.5,239.8,86.8,240.5z"/>
	<path class="st27" d="M67.7,243.6c10.6-1.1,21.2-0.1,31.8-0.1c22.3,0.1,44.7,0,67,0c0,0.3,0,0.7,0.1,1c0,0.3,0,0.7-0.1,1
		c-1.7,1.9-3.9,1.5-6,1.5c-19.2,0-38.3,0-57.5,0c-8.9,0-17.9,0-26.8,0c-1.8,0-3.7-0.5-5.2,0.9c-0.5,0.7-0.8,1.4-1.2,2.1
		c-0.3,0.4-0.8,0.7-1.3,0.8c-0.6,0-1-0.3-1.3-0.7c-0.6-0.9-0.7-2-0.7-3C66.2,245.7,66.7,244.6,67.7,243.6z"/>
	<path class="st28" d="M156.6,240.5c3.3,0,6.6,0,9.9,0c0,0.3,0,0.7,0,1c-6.3,0-12.6,0-18.9,0C150.3,238.6,153.5,240.3,156.6,240.5z"
		/>
	<path class="st29" d="M68.8,248.5c-0.1-2.9,1.8-3,4-3c4.9,0,9.9,0,14.8,0c26.3,0,52.6,0,78.9,0c0,1,0,2,0,3
		c-0.7,0.7-1.5,1.4-2.6,1.4c-8.7-0.2-17.4,0.6-26.1,0.2c-2.8-0.1-5.6-0.1-8.4-0.1c-18,0-36,0.1-54,0C73.1,250,70.7,250.4,68.8,248.5
		z"/>
	<path class="st30" d="M68.8,248.5c32.6,0,65.1,0,97.7,0c0,0.3,0,0.7,0,1c0,0.7,0,1.3,0,2c-1.3,1.3-2.9,1.5-4.6,1.5
		c-20.3-0.1-40.6,0.2-60.9-0.1c-8.5-1.8-17.1-0.4-25.7-0.9c-2.2-0.1-4.7,0.6-6.5-1.5C68.8,249.8,68.8,249.2,68.8,248.5z"/>
	<path class="st31" d="M166.5,237.5c-45.5,0-91,0-136.4,0c-0.4-0.4-0.6-0.9-0.6-1.5c0.1-0.6,0.4-1,0.9-1.4
		c8.5-2.1,17.1-1.2,25.7-1.2c9.3,0,18.7-0.2,28,0.2c10.9,0.5,21.7,0.1,32.5-0.1c10.3-0.2,20.6,0.3,30.9-0.2c6.3-0.3,12.8,0,19,1.2
		c0,0,0.1,0,0.1,0C166.6,235.5,166.5,236.5,166.5,237.5z"/>
	<path class="st32" d="M166.5,257.5c-54.2-0.2-108.4-0.6-162.5,0c0-1,0-2,0-3c1.6-2.4,4.1-2.5,6.6-2.5c16.3,0.4,32.6,0,48.9,0
		c33.4,0,66.8,0.7,100.3,0.5c2.2,0,4.7-0.6,6.7,1c0,0,0,0,0,0C166.5,254.8,166.5,256.1,166.5,257.5z"/>
	<path class="st33" d="M166.5,253.5c-12,0-24.1,0-36.1,0c-16.4,0-32.8-0.6-49.2,0.2c-13.7,0.6-27.3-0.6-41,0.3
		c-9.2,0.6-18.6,0.2-27.9-0.4c-2.9-0.2-5.6,0.1-8.3,0.8c0-1,0-2,0-3c1.7-1.7,3.8-1.6,6-1.1c2,0.5,3.9-0.4,5.8-0.7
		c15.7-0.2,31.5-0.1,47.2-0.1c1.7,0,3.3,0,4.8,0.9l0,0.1c4.8,2,9.8,0.6,14.6,0.6c6.1,0,12.2,0.1,18.2,0.3c21.9,0,43.9,0,65.8,0
		C166.5,252.1,166.5,252.8,166.5,253.5z"/>
	<path class="st34" d="M4.1,232.5c3.3,0,6.6,0,9.9,0c0.3,0.5,0.4,1,0.3,1.6c-0.3,1.2-0.9,2-2.1,2.5c-2.8,0.4-5.7,1.1-8.2-1.1
		c0-0.7-0.1-1.3-0.1-2C4,233.2,4,232.8,4.1,232.5z"/>
	<path class="st35" d="M4,243.5c3,0.4,6.2-1,9,1c1.2,1.4,1.3,2.9,0.1,4.4c-3.1,1.8-6.1,1.7-9.1-0.5c0,0,0,0,0,0
		C4,246.8,4,245.2,4,243.5z"/>
	<path class="st36" d="M14.1,240.4c-3.4,0.3-6.7,1.2-10.1,0.1c0-0.3,0-0.7-0.1-1c0-0.7,0-1.3,0.1-2c2.5-1.8,5.4-0.8,8.1-0.9
		c1.2,0.3,1.9,1.1,2.3,2.2C14.5,239.4,14.4,239.9,14.1,240.4z"/>
	<path class="st37" d="M4,248.5c3,0,6,0,8.9,0c1.4,0.5,2.5,1.2,2.1,2.9c-3.7,1.9-7.4-0.3-11,0C4,250.5,4,249.5,4,248.5z"/>
	<path class="st38" d="M12.9,237.5c-3,0-5.9,0-8.9,0c0-0.7,0-1.3,0-2c2.9,0,5.9,0,8.8,0C13.5,236.2,13.5,236.9,12.9,237.5z"/>
	<path class="st39" d="M85.2,43.7c22.2,0,44.5,0,66.7,0c1.9,0,4.1-0.7,5.2,1.8c1.3,2.9-0.3,5.7-3.6,6c-2,0.2-4,0.1-6,0.1
		c-41.8,0-83.7,0-125.5,0c-1.3,0-2.7,0-4,0c-2.8,0-4.9-0.6-5-4.1c-0.1-3.7,2.1-3.9,4.9-3.9C40.4,43.7,62.8,43.7,85.2,43.7z"/>
	<path class="st39" d="M72.3,55.8c17.8,0,35.5,0,53.3,0c2.8,0,5.3-0.1,5.2,4c-0.1,4.1-2.6,3.9-5.4,3.9c-35.5,0-71,0-106.6,0
		c-2.4,0-5.2,0.5-5.7-3.2c-0.5-3.9,1.4-4.8,4.9-4.8C36.1,55.8,54.2,55.8,72.3,55.8z"/>
	<path class="st39" d="M59.3,162.8c13.6,0,27.3,0,40.9,0c2.8,0,5.4-0.2,5.4,3.9c0,4.1-2.7,3.9-5.4,3.9c-27.3,0-54.5,0-81.8,0
		c-2.8,0-5.4,0.2-5.4-3.9c0-4.1,2.7-3.9,5.4-3.9C32.1,162.9,45.7,162.8,59.3,162.8z"/>
	<path class="st39" d="M59.4,103.8c13.6,0,27.2,0,40.8,0c2.7,0,5.5-0.3,5.4,3.8c0,4.1-2.8,3.9-5.5,3.9c-27.2,0-54.4,0-81.6,0
		c-2.8,0-5.4-0.1-5.5-4c-0.1-4.2,2.9-3.7,5.5-3.7C32.2,103.8,45.8,103.8,59.4,103.8z"/>
	<path class="st39" d="M51.4,99.8c-7.6,0-15.3-0.1-22.9,0c-3,0-4.6-0.7-4.7-4.1c-0.1-3.6,1.5-4.7,4.8-4.7c15.3,0,30.6,0.1,45.9,0
		c3.5,0,4.5,1.5,4.6,4.8c0,3.6-1.8,4.1-4.7,4C66.7,99.8,59.1,99.9,51.4,99.8z"/>
	<path class="st40" d="M50.9,158.9c-7.6,0-15.3-0.1-22.9,0c-3,0.1-4.1-1.1-4.1-4.1c0-2.9,0.8-4.2,4-4.2c15.8,0.1,31.6,0.1,47.4,0
		c2.8,0,3.8,1.1,3.8,3.8c0,2.6-0.4,4.5-3.7,4.5C67.1,158.8,59,158.8,50.9,158.9z"/>
	<path class="st41" d="M40,132.7c-7.5,0-14.9,0-22.4,0c-2.7,0-4.5-0.5-4.5-3.8c0-3.2,1.8-4,4.4-4c15.4,0,30.9,0,46.3,0
		c2.9,0,4.3,1,4.2,4.1c-0.1,3.3-2,3.7-4.6,3.7C55.6,132.7,47.8,132.7,40,132.7z"/>
	<path class="st40" d="M40.9,184.5c7.6,0,15.3,0,22.9,0c2.4,0,4.1,0.3,4.2,3.4c0.1,3.3-1.5,3.8-4.3,3.8c-15.4-0.1-30.9,0-46.3,0
		c-2.4,0-4.2-0.3-4.3-3.4c-0.1-3.2,1.7-3.9,4.4-3.8C25.3,184.6,33.1,184.5,40.9,184.5z"/>
	<path class="st42" d="M24.1,216.5c-0.1-0.3-0.2-0.6-0.3-1c-0.6-4.9,1.8-6.1,6.4-6.1c14.4,0.3,28.8,0.3,43.2,0
		c4.8-0.1,6.3,1.6,5.5,6.1c-2.1,2.3-5,1.7-7.5,1.8c-14.8,0.2-29.6,0.3-44.5,0.2C25.8,217.5,24.9,217.2,24.1,216.5z"/>
	<path class="st40" d="M33.3,86.9c-5.3,0-10.6,0-15.9,0c-2.5,0-4.2-0.4-4.3-3.4c-0.1-3.3,1.7-3.8,4.4-3.8c10.6,0.1,21.2,0,31.8,0
		c2.4,0,4.3,0.4,4.3,3.4c0.1,3.2-1.7,3.9-4.4,3.8C43.9,86.9,38.6,86.9,33.3,86.9z"/>
	<path class="st43" d="M21.6,173.7c1.8,0,3.6,0,5.4,0c2.4,0.1,2.9,1.7,2.9,3.7c0,2-0.4,3.8-2.8,3.9c-3.5,0.1-6.9,0.1-10.4,0.1
		c-2.6,0-3.8-1.4-3.7-4.1c0-2.9,1.6-3.7,4.1-3.6C18.6,173.7,20.1,173.7,21.6,173.7C21.6,173.7,21.6,173.7,21.6,173.7z"/>
	<path class="st44" d="M24.1,216.5c18.2-0.1,36.5,0.3,54.7-1c0,0.7,0,1.3,0,2c-1.7,1-3.5,0.9-5.3,0.9c-14.8,0-29.5,0-44.3,0
		C27.4,218.4,25.1,219.2,24.1,216.5z"/>
	<path class="st40" d="M21.6,114.7c1.7,0,3.3,0,5,0c2.2-0.1,3.4,0.9,3.4,3.2c0,2.3-0.5,4-3.2,4c-3.3,0-6.6,0-10,0
		c-2.5,0.1-3.7-1-3.7-3.6c0-2.5,1-3.7,3.5-3.7C18.3,114.7,19.9,114.7,21.6,114.7z"/>
	<path class="st45" d="M19.8,95.6c0.1,2.3-0.3,4.3-3.4,4.3c-3,0-3.3-1.9-3.4-4.3c-0.1-2.4,0.5-4.4,3.3-4.4
		C19.2,91.2,19.8,93.2,19.8,95.6z"/>
	<path class="st45" d="M19.8,154.4c0.1,2.4-0.2,4.4-3.3,4.4c-3,0-3.5-1.7-3.5-4.2c0-2.1,0.3-3.9,3-4.1
		C18.9,150.5,19.9,151.9,19.8,154.4z"/>
	<path class="st46" d="M13.9,210.5c1.7-1.4,3.3-1.4,5,0.1c0.8,2.3,0.9,4.5-0.1,6.8l-0.1,0.1C13.1,218.6,12.7,218.1,13.9,210.5z"/>
	<path class="st47" d="M13.9,210.5c0.3,3.2-1.5,7.9,4.8,6.9c-1.9,1.7-3.8,1.4-5.8,0.1c0-1.3-0.1-2.7-0.1-4
		C13.1,212.5,12.8,211.3,13.9,210.5z"/>
	<path class="st47" d="M18.9,217.4c0-2.3,0-4.5,0.1-6.8c1.5,1.4,0.6,3.3,1.1,4.9C19.6,216.2,19.2,216.8,18.9,217.4z"/>
	<path class="st48" d="M203,13c8,0,15.9,0,23.9,0c3.1,0,5.6,0.1,5.6,4.3c0,4-2,4.6-5.3,4.6c-16.1-0.1-32.2-0.1-48.3,0
		c-3.3,0-5.3-0.6-5.3-4.6c0-4.2,2.5-4.4,5.6-4.3C187,13.1,195,13,203,13z"/>
	<path class="st49" d="M105.7,227.5c-0.3,0.6-0.7,1.3-1,1.9c-1,0.9-2.2,0.6-3.3,0.6c-28,0-56.1,0-84.1,0c-1.1,0-2.3,0.3-3.3-0.6
		c-0.2-0.3-0.5-0.6-0.7-0.9c-0.1-1.3-0.2-2.7-0.3-4c0.6-2.6,2.6-2.1,4.4-2.1c27.9,0,55.8,0,83.6,0c1.7,0,3.3,0,4.7,1.2
		C105.7,224.9,105.7,226.2,105.7,227.5z"/>
	<path class="st50" d="M166.5,234.5c-8.1,1.6-16.3,0-24.5,0.1c-2.5,0-5.2-0.7-7.4,0c-5.7,1.7-11.5,0.4-17.1,0.3
		c-8.4-0.2-16.7,0.4-25,0.2c-14.5-0.4-29.1-0.4-43.6-0.7c-6.3-0.1-12.5,0.6-18.8,1c-0.6-0.6-0.7-1.2-0.2-1.9
		c1.4-1.6,3.4-1.1,5.1-1.1c8.7,0,17.5,0,26.2,0c15.5,0,30.9,0.4,46.4-0.1c10.6-0.4,21.2,0.4,31.8-0.1c9.1-0.4,18.1,1,27.1,0.3
		C166.5,233.2,166.5,233.9,166.5,234.5z"/>
	<path class="st18" d="M13.9,229.5c30.3,0,60.5,0,90.8,0c-1.5,1.6-3.4,1.1-5.2,1.1c-26.8,0-53.6,0-80.5,0
		C17.3,230.5,15.4,231,13.9,229.5z"/>
	<path class="st51" d="M29.8,233.7c0.1,0.6,0.1,1.2,0.2,1.9c-0.1,0.3-0.2,0.6-0.2,1c-5,3.2-10.3,3.3-15.7,1.5
		c-0.9-1-0.6-2.2-0.4-3.4c4.6-2.3,9.6-0.4,14.3-1.1c0.3,0,0.6-0.1,0.8-0.1C29.2,233.5,29.5,233.6,29.8,233.7z"/>
	<path class="st52" d="M13.9,233.4c0-0.3,0-0.6,0.1-0.8c5,0.4,10-1,14.9,0.8c0,0,0,0.3,0,0.3c-4.7,0.8-9.5,0.2-14.3,0.3
		C14.4,233.7,14.1,233.6,13.9,233.4z"/>
	<path class="st53" d="M15,251.4c-0.8-0.9-2.1-1.5-2.1-2.9c0-1.3,0-2.6,0-4c0.3,0,0.6-0.1,1-0.1c2,1.1,4.1,1,6.3,1
		c13.4,0,26.8,0,40.1,0c2.6,0,5.3-0.2,7.4,2c0,1,0,2,0,2.9c-1.9,1.2-4.1,1-6.3,1C46,251.4,30.5,251.4,15,251.4z"/>
	<path class="st54" d="M67.8,247.5c-16.3,0-32.6,0-48.8,0c-2.2,0-5,0.8-5-3c1.4-1.3,3.1-0.9,4.7-1c16.3,0,32.7,0,49,0
		C67.7,244.9,67.7,246.2,67.8,247.5z"/>
	<path class="st55" d="M86.8,240.5c1.4-0.7,2.8-1,4.3-1c15.4,0,30.9,0,46.3,0c1.2,0,2.3,0.1,3.2,1c0.6,0.3,0.6,0.7,0,1
		c-15.8-0.2-31.5-0.3-47.3-0.9C91.2,240.6,88.9,242.6,86.8,240.5z"/>
	<path class="st56" d="M14,237.5c5.3,0.7,10.5-1.3,15.8-1c0.1,0.3,0.2,0.7,0.3,1c-0.4,1-0.8,2-1.2,2.9c-4.9,0-9.8,0-14.7,0
		c-0.1-0.3-0.1-0.6-0.2-0.9C13.4,238.8,13.4,238.2,14,237.5z"/>
	<path class="st55" d="M156.6,240.5c-3,0.4-6.2-1-9,1c-0.7,0-1.3,0-2,0c-0.8-1-2.2,0-3-1C147.3,238.9,151.9,238.9,156.6,240.5z"/>
	<path class="st28" d="M142.6,240.5c1.1,0,2.2,0,3,1c-1.7,0-3.3,0-5,0c0-0.3,0-0.7,0-1C141.3,240.5,141.9,240.5,142.6,240.5z"/>
	<path class="st37" d="M100.7,251.5c-1.2,0.6-2.4,1.2-3.8,0.8c-7.5-1.8-15.1-0.3-22.6,0c-2.5,0.1-4.6-0.4-6.5-1.7c0.3,0,0.6,0,1,0
		c8.9,0,17.8,0,26.7,0C97.3,250.5,99.2,250,100.7,251.5z"/>
	<path class="st57" d="M14,237.5c0,0.7,0,1.3,0,2c-0.4-0.7-0.7-1.3-1.1-2c0-0.7,0-1.3,0-2c0.4-0.7,0.7-1.4,1.1-2.2
		c0,0,0.1,0.3,0.1,0.3c0.4,0.2,0.5,0.4,0.4,0.6c-0.1,0.2-0.3,0.3-0.4,0.3C14,235.5,14,236.5,14,237.5z"/>
	<path class="st58" d="M14,234.5c0-0.3,0-0.6,0-0.9c5,0,9.9,0,14.9,0C24,235.6,18.9,234,14,234.5z"/>
	<rect y="265.5" width="266.3" height="8.1"/>
</g>
</svg>
