<?xml version="1.0" encoding="utf-8"?>
<!-- Generator: Adobe Illustrator 26.0.2, SVG Export Plug-In . SVG Version: 6.00 Build 0)  -->
<svg version="1.1" id="Слой_1" xmlns="http://www.w3.org/2000/svg" xmlns:xlink="http://www.w3.org/1999/xlink" x="0px" y="0px"
	 viewBox="0 0 716.3 609.7" style="enable-background:new 0 0 716.3 609.7;" xml:space="preserve">
<style type="text/css">
	.st0{fill:#121212;}
	.st1{fill:#0B0B0B;}
	.st2{fill:#414141;}
	.st3{fill:#1D4ED7;}
	.st4{fill:url(#SVGID_1_);}
</style>
<path d="M709.8,609.7c-233.9,0-467.9,0-701.8,0c-2.5-3.2-3.2-6.9-2.9-10.8C6.9,575,5.3,551,5.6,527c0.1-9.5,0.9-19,0.7-28.4
	c-0.3-13.5-0.3-26.9-0.5-40.4c-0.2-16-0.1-32,0-47.9c0-28.6-0.4-57.3-0.2-85.9c0.1-17.1-0.2-34.3,0.2-51.4c0.4-15.6,0-31.3,0.3-46.9
	c0.6-29.3,0.5-58.6,0.2-87.9C6.2,120.9,7,103.7,6.6,86.4c-0.1-6.3-1.2-12.6,0-18.9c0.2-1.1,0.1-2.3,1-3.3c5.9-2.5,12.2-1.3,18.2-1.3
	c32.2,0,64.4-0.3,96.5,0c30.1,0.2,60.1,0.2,90.2,0.4c32.7,0.2,65.4-0.1,98.1,0c25.3,0.1,50.5,0.4,75.8,0
	c33.4-0.5,66.7-0.1,100.1-0.5c22.7-0.3,45.5,0.1,68.2,0.2c27.6,0.2,55.3,0,82.9,0c22.1,0,44.2-0.3,66.3,0.1c2.2,0,4.4-0.2,6.4,0.9
	c1.5,1.7,1.1,3.7,1.1,5.7c0,178,0,355.9,0,533.9C711.3,605.7,711.7,608,709.8,609.7z"/>
<path class="st0" d="M716.3,10c0,148.1,0,296.2,0,444.2c0,51.8,0,103.6,0,155.4c-0.3,0-0.7,0-1,0c0-178.8,0-357.5,0-536.3
	c0-2.8,0-5.7,0-8.5c-1.4-1-2.1-2.4-2-4.2c-1-15.6-0.4-31.2-0.3-46.8c0-1.5,0.1-3,1.5-4.1C715.1,9.5,715.7,9.6,716.3,10z"/>
<path class="st0" d="M0,609.7C0,413.5,0,217.2,0,21c0-3.7,0-7.3,0-11c0.6-0.4,1.2-0.5,1.8-0.2c1.4,1,1.5,2.6,1.5,4
	C3.4,29.5,4,45.1,3,60.7c0.2,1.8-0.7,3.1-2,4.2c0,130.7,0,261.3,0,392c0,50.9,0,101.9,0,152.8C0.7,609.7,0.3,609.7,0,609.7z"/>
<path class="st0" d="M358.2,198.9c-106,0-212.1,0-318.1,0c-2.2,0-4.3,0-6.5,0c-7.5-0.3-12.5-5.1-12.6-12.7c-0.1-29.5-0.1-59,0-88.4
	c0-7.8,5.1-12.5,13-12.8c1.2,0,2.3,0,3.5,0c213.7,0,427.5,0,641.2,0c1.3,0,2.7,0,4,0c7.5,0.3,12.5,5.1,12.6,12.7
	c0.1,29.5,0.1,59,0,88.4c0,7.8-5.1,12.7-13,12.7c-12,0.1-24,0.1-36,0.1C550.3,198.9,454.3,198.9,358.2,198.9z"/>
<path class="st0" d="M685.3,600.6c-149.8,0-299.7,0-449.5,0c-68.3,0-136.5,0-204.8,0c-0.4-0.6-0.5-1.2-0.2-1.9
	c1.2-1.5,2.9-1.4,4.6-1.5c2.2-0.2,4.3-0.1,6.5-0.1c210.8,0,421.7,0,632.5,0.1c3.7,0,7.7-1,11.1,1.5
	C685.8,599.4,685.8,600,685.3,600.6z"/>
<path class="st0" d="M685.3,332.8c-150,0-300,0-450,0c-68.1,0-136.2,0-204.3,0c-0.4-0.6-0.5-1.2-0.2-1.9c1.2-1.5,2.9-1.4,4.6-1.5
	c2.2-0.2,4.3-0.1,6.5-0.1c210.8,0,421.7,0,632.5,0.1c3.7,0,7.7-1,11.1,1.5C685.8,331.6,685.8,332.2,685.3,332.8z"/>
<path class="st0" d="M31,352.9c171.3,0,342.7,0,514,0c46.8,0,93.6,0,140.4,0c0.4,0.6,0.5,1.2,0.2,1.9c-1.2,1.5-2.9,1.4-4.6,1.5
	c-2.2,0.2-4.3,0.1-6.5,0.1c-210.8,0-421.7,0-632.5-0.1c-3.7,0-7.7,1-11.1-1.5C30.5,354.1,30.6,353.4,31,352.9z"/>
<path class="st0" d="M685.3,466.7c-150,0-300,0-450,0c-68.1,0-136.2,0-204.3,0c-0.4-0.6-0.5-1.2-0.2-1.9c1.2-1.5,2.9-1.4,4.6-1.5
	c2.2-0.2,4.3-0.1,6.5-0.1c210.8,0,421.7,0,632.5,0.1c3.7,0,7.7-1,11.1,1.5C685.8,465.5,685.8,466.1,685.3,466.7z"/>
<path class="st0" d="M31,486.8c171.3,0,342.7,0,514,0c46.8,0,93.6,0,140.4,0c0.4,0.6,0.5,1.2,0.2,1.9c-1.2,1.5-2.9,1.4-4.6,1.5
	c-2.2,0.2-4.3,0.1-6.5,0.1c-210.8,0-421.7,0-632.5-0.1c-3.7,0-7.7,1-11.1-1.5C30.5,488,30.6,487.4,31,486.8z"/>
<path class="st0" d="M31,218.9c171,0,342,0,513,0c47.1,0,94.2,0,141.4,0c0.4,0.6,0.5,1.2,0.2,1.9c-1.2,1.5-2.9,1.4-4.6,1.5
	c-2.2,0.2-4.3,0.1-6.5,0.1c-210.8,0-421.7,0-632.5-0.1c-3.7,0-7.7,1-11.1-1.5C30.5,220.1,30.6,219.5,31,218.9z"/>
<path class="st0" d="M21,456.7c0-31.3,0-62.6,0-93.9c0.6-0.4,1.2-0.5,1.9-0.2c1.9,1.8,1.5,4.3,1.5,6.6c0.1,27,0.1,54.1,0,81.1
	c0,2.3,0.4,4.7-1.5,6.6C22.2,457.2,21.6,457.2,21,456.7z"/>
<path class="st0" d="M695.3,228.9c0,31.3,0,62.6,0,93.9c-0.6,0.4-1.2,0.5-1.9,0.2c-1.9-1.8-1.5-4.3-1.5-6.6c-0.1-27-0.1-54.1,0-81.1
	c0-2.3-0.4-4.7,1.5-6.6C694.1,228.4,694.7,228.5,695.3,228.9z"/>
<path class="st0" d="M21,322.8c0-31.3,0-62.6,0-93.9c0.6-0.4,1.2-0.5,1.9-0.2c1.9,1.8,1.5,4.3,1.5,6.6c0.1,27,0.1,54.1,0,81.1
	c0,2.3,0.4,4.7-1.5,6.6C22.2,323.3,21.6,323.2,21,322.8z"/>
<path class="st0" d="M21,590.7c0-31.3,0-62.6,0-93.9c0.6-0.4,1.2-0.5,1.9-0.2c1.9,1.8,1.5,4.3,1.5,6.6c0.1,27,0.1,54.1,0,81.1
	c0,2.3,0.4,4.7-1.5,6.6C22.2,591.1,21.6,591.1,21,590.7z"/>
<path class="st0" d="M695.3,496.8c0,31.3,0,62.6,0,93.9c-0.6,0.4-1.2,0.5-1.9,0.2c-1.9-1.8-1.5-4.3-1.5-6.6c-0.1-27-0.1-54.1,0-81.1
	c0-2.3-0.4-4.7,1.5-6.6C694.1,496.3,694.7,496.3,695.3,496.8z"/>
<path class="st0" d="M695.3,362.8c0,31.3,0,62.6,0,93.9c-0.6,0.4-1.2,0.5-1.9,0.2c-1.9-1.8-1.5-4.3-1.5-6.6c-0.1-27-0.1-54.1,0-81.1
	c0-2.3-0.4-4.7,1.5-6.6C694.1,362.4,694.7,362.4,695.3,362.8z"/>
<path class="st1" d="M694.4,322.8c0.3,0,0.6,0,0.9,0c-1.2,5.5-4.5,8.8-10,10c0-0.3,0-0.6,0-0.9C685.9,328.6,691.1,323.3,694.4,322.8
	z"/>
<path class="st1" d="M695.3,228.9c-0.3,0-0.6,0-0.9,0c-3.2-0.5-8.5-5.8-9-9c0-0.3,0-0.6,0-0.9C690.8,220.1,694.1,223.4,695.3,228.9z
	"/>
<path class="st1" d="M22,228.9c-0.3,0-0.6,0-0.9,0c1.2-5.5,4.5-8.8,10-10c0,0.3,0,0.6,0,0.9C30.5,223.1,25.2,228.4,22,228.9z"/>
<path class="st1" d="M21,456.7c0.3,0,0.6,0,0.9,0c3.2,0.5,8.5,5.8,9,9c0,0.3,0,0.6,0,0.9C25.5,465.5,22.2,462.2,21,456.7z"/>
<path class="st1" d="M694.4,456.7c0.3,0,0.6,0,0.9,0c-1.2,5.5-4.5,8.8-10,10c0-0.3,0-0.6,0-0.9C685.9,462.5,691.1,457.3,694.4,456.7
	z"/>
<path class="st1" d="M22,362.8c-0.3,0-0.6,0-0.9,0c1.2-5.5,4.5-8.8,10-10c0,0.3,0,0.6,0,0.9C30.5,357,25.2,362.3,22,362.8z"/>
<path class="st1" d="M695.3,362.8c-0.3,0-0.6,0-0.9,0c-3.2-0.5-8.5-5.8-9-9c0-0.3,0-0.6,0-0.9C690.8,354,694.1,357.4,695.3,362.8z"
	/>
<path class="st1" d="M695.3,496.8c-0.3,0-0.6,0-0.9,0c-3.2-0.5-8.5-5.8-9-9c0-0.3,0-0.6,0-0.9C690.8,488,694.1,491.3,695.3,496.8z"
	/>
<path class="st1" d="M21,322.8c0.3,0,0.6,0,0.9,0c3.2,0.5,8.5,5.8,9,9c0,0.3,0,0.6,0,0.9C25.5,331.6,22.2,328.3,21,322.8z"/>
<path class="st1" d="M21,590.7c0.3,0,0.6,0,0.9,0c3.2,0.5,8.5,5.8,9,9c0,0.3,0,0.6,0,0.9C25.5,599.4,22.2,596.1,21,590.7z"/>
<path class="st1" d="M694.4,590.7c0.3,0,0.6,0,0.9,0c-1.2,5.5-4.5,8.8-10,10c0-0.3,0-0.6,0-0.9C685.9,596.5,691.1,591.2,694.4,590.7
	z"/>
<path class="st1" d="M22,496.7c-0.3,0-0.6,0-0.9,0c1.2-5.5,4.5-8.8,10-10c0,0.3,0,0.6,0,0.9C30.5,491,25.2,496.2,22,496.7z"/>
<path class="st0" d="M10,0c133.5,0,267.1,0,400.6,0c98.6,0,197.1,0,295.7,0c0.4,0.6,0.5,1.2,0.2,1.9c-1.2,1.5-2.9,1.4-4.6,1.5
	c-2.2,0.2-4.3,0.1-6.5,0.1c-224.8,0-449.6,0-674.5-0.1c-3.7,0-7.7,1-11.1-1.5C9.5,1.3,9.6,0.6,10,0z"/>
<path class="st1" d="M706.3,1c0-0.3,0-0.6,0-0.9c5.5,1.2,8.8,4.5,10,10c-0.3,0-0.6,0-0.9,0C712.1,9.5,706.9,4.2,706.3,1z"/>
<path class="st1" d="M10,0c0,0.3,0,0.6,0,0.9c-0.5,3.2-5.8,8.5-9,9c-0.3,0-0.6,0-0.9,0C1.2,4.6,4.6,1.2,10,0z"/>
<path d="M1,10c1.7-4.4,4.7-7.4,9-9c232.1,0,464.2,0,696.3,0c4.4,1.7,7.4,4.7,9,9c0,17,0,34-0.1,51c-1.5,0-3-0.1-4.5-0.1
	c-235.1,0-470.2,0-705.3,0C4,61,2.5,61,1,61C1,44,1,27,1,10z"/>
<path class="st2" d="M309.6,129.9c-74.1,0-148.1,0-222.2,0c-2.3,0-4.7,0.1-7-0.2c-6-0.8-10.3-5.8-10.4-11.6c-0.1-6,4.3-11.1,10.6-12
	c1.8-0.2,3.7-0.2,5.5-0.2c149.5,0,298.9,0,448.4,0c10.1,0,15.8,4.3,15.9,11.8c0.1,7.7-5.7,12.2-16.1,12.2
	C459.4,129.9,384.5,129.9,309.6,129.9z"/>
<path class="st2" d="M172.4,157.9c29.3,0,58.6,0,87.9,0c2,0,4-0.1,6,0.3c5,0.8,8.3,4.7,8.4,9.7c0.1,4.9-3,8.8-8.3,9.7
	c-1.9,0.4-4,0.3-6,0.3c-58.7,0-117.5,0-176.2,0c-1.3,0-2.7,0-4-0.1c-6.1-0.4-10-4.1-10.2-9.5c-0.1-5.6,3.9-9.8,10-10.3
	c1.8-0.1,3.7-0.1,5.5-0.1C114.5,157.9,143.4,157.9,172.4,157.9z"/>
<path class="st2" d="M141.3,153.9c-19.1,0-38.2,0-57.4,0c-2,0-4,0-6-0.4c-4.7-1-7.9-4.9-7.9-9.6c0-4.7,3-8.6,7.8-9.6
	c2.1-0.4,4.3-0.4,6.4-0.4c38.1,0,76.2,0,114.2,0c9.5,0,14.3,3.5,14.2,10.2c-0.1,6.5-4.8,9.8-14,9.8
	C179.5,153.9,160.4,153.9,141.3,153.9z"/>
<path class="st2" d="M658.1,129.8c-3.2,0-6.3,0.2-9.4-0.1c-6.5-0.6-11.1-5.8-11.1-11.9c0-6.2,4.8-11.4,11.3-11.7
	c6.1-0.3,12.3-0.4,18.4,0c6.5,0.4,11.1,5.7,11.1,11.9c0,6.2-4.8,11.2-11.3,11.8C664,130,661,129.8,658.1,129.8z"/>
<path class="st2" d="M657.8,134c3,0,6-0.2,9,0c6.7,0.5,11.6,5.7,11.5,12c-0.1,6.2-4.8,11.3-11.3,11.7c-6,0.3-11.9,0.3-17.9,0
	c-6.7-0.3-11.6-5.7-11.5-12c0.1-6.2,4.8-11.2,11.3-11.7C651.8,133.8,654.8,134,657.8,134z"/>
<path class="st2" d="M38.1,117.5c0.2-6.5,6-11.9,12.5-11.5c6.4,0.4,11.5,5.9,11.2,12.3c-0.2,6.5-6,11.9-12.5,11.5
	C43,129.4,37.8,123.9,38.1,117.5z"/>
<path d="M22,496.7c1.7-4.4,4.7-7.4,9-9c218.1,0,436.2,0,654.4,0c4.3,1.7,7.4,4.7,9,9c0,31.3,0,62.6,0,93.9c-1.7,4.4-4.7,7.4-9,9
	c-218.1,0-436.2,0-654.4,0c-4.3-1.7-7.4-4.7-9-9C22,559.4,22,528.1,22,496.7z"/>
<path d="M31,331.8c-4.3-1.7-7.4-4.7-9-9c0-31.3,0-62.6,0-93.9c1.7-4.4,4.7-7.4,9-9c218.1,0,436.2,0,654.4,0c4.3,1.7,7.4,4.7,9,9
	c0,31.3,0,62.6,0,93.9c-1.7,4.4-4.7,7.4-9,9C467.2,331.8,249.1,331.8,31,331.8z"/>
<path d="M685.4,353.8c4.3,1.7,7.4,4.7,9,9c0,31.3,0,62.6,0,93.9c-1.7,4.4-4.7,7.4-9,9c-218.1,0-436.2,0-654.4,0
	c-4.3-1.7-7.4-4.7-9-9c0-31.3,0-62.6,0-93.9c1.7-4.4,4.7-7.4,9-9C249.1,353.8,467.2,353.8,685.4,353.8z"/>
<path class="st2" d="M358.2,45c-6.8,0-13.6,0.1-20.5,0c-8.6-0.2-13-5.1-13-14.2c0.1-8.7,4.6-13.6,13-13.7c13.6-0.1,27.3-0.1,40.9,0
	c8.6,0.1,13,5.1,13,14.2c0,8.7-4.6,13.5-13,13.7c-0.3,0-0.7,0-1,0C371.2,45,364.7,45,358.2,45z"/>
<path class="st2" d="M310.2,531.7c-74.4,0-148.9,0-223.3,0c-2.2,0-4.4,0.1-6.5-0.2c-6.2-0.8-10.6-6-10.4-12.1
	c0.1-5.9,4.4-10.7,10.4-11.6c1.8-0.2,3.7-0.2,5.5-0.2c149.5,0,299,0,448.6,0c10.4,0,16.1,4.4,15.9,12.2c-0.2,7.6-5.7,11.7-15.9,11.7
	C459.7,531.7,385,531.7,310.2,531.7z"/>
<path class="st2" d="M171.8,579.7c-29.3,0-58.6,0-87.9,0c-1.8,0-3.7,0.1-5.5-0.2c-5.1-0.8-8.4-4.8-8.4-9.6c0-5.1,3.6-9.2,8.7-10
	c1.8-0.3,3.7-0.2,5.5-0.2c58.8,0,117.5,0,176.3,0c9.5,0,14.1,3.4,14.2,10.2c0,6.5-4.7,9.8-13.9,9.8
	C231.1,579.7,201.5,579.7,171.8,579.7z"/>
<path class="st2" d="M141.4,535.7c19,0,37.9,0,56.9,0c1.5,0,3-0.1,4.5,0.1c5.8,0.4,9.9,4.4,10,9.8c0.1,5.4-3.9,9.5-9.7,10
	c-1.3,0.1-2.7,0.1-4,0.1c-38.4,0-76.9,0-115.3,0c-9,0-13.8-3.6-13.7-10.1c0.1-6.5,4.7-9.8,13.9-9.9c15.1,0,30.3,0,45.4,0
	C133.4,535.7,137.4,535.7,141.4,535.7z"/>
<path class="st2" d="M657.9,559.6c-3,0-6,0.2-9,0c-6.5-0.5-11.3-5.4-11.4-11.7c-0.1-6.4,4.7-11.8,11.5-12.1c6-0.3,12-0.3,18,0
	c6.7,0.3,11.6,5.7,11.4,12.1c-0.1,6.2-4.9,11.2-11.4,11.6C663.9,559.8,660.9,559.6,657.9,559.6z"/>
<path class="st2" d="M658.3,507.8c2.8,0,5.7-0.2,8.5,0c6.8,0.5,11.6,5.6,11.6,12c-0.1,6.2-4.8,11.4-11.3,11.7
	c-6.1,0.3-12.3,0.3-18.5,0c-6.5-0.4-11.1-5.7-11.1-12c0.1-6.2,4.8-11.3,11.3-11.8C651.9,507.6,655.1,507.8,658.3,507.8z"/>
<path class="st2" d="M49.9,531.7c-6.6,0-12.1-5.6-11.9-12.2c0.2-6.4,5.5-11.7,12-11.7c6.6,0,12.1,5.6,11.9,12.2
	C61.7,526.4,56.3,531.7,49.9,531.7z"/>
<path class="st2" d="M310.7,239.9c74.3,0,148.5,0,222.8,0c2.2,0,4.4-0.1,6.5,0.2c6.2,0.8,10.6,6,10.5,12.1
	c-0.1,5.9-4.5,10.8-10.5,11.6c-1.8,0.2-3.7,0.2-5.5,0.2c-149.5,0-299,0-448.6,0c-10.4,0-16.1-4.4-15.9-12.2
	c0.2-7.6,5.7-11.7,15.9-11.7C160.8,239.9,235.8,239.9,310.7,239.9z"/>
<path class="st2" d="M171.8,311.8c-29.3,0-58.6,0-87.9,0c-1.8,0-3.7,0.1-5.5-0.2c-5.1-0.8-8.4-4.8-8.4-9.6c0-5.1,3.6-9.2,8.7-10
	c1.8-0.3,3.7-0.2,5.5-0.2c58.8,0,117.5,0,176.3,0c9.5,0,14.1,3.4,14.2,10.2c0,6.5-4.7,9.8-13.9,9.8
	C231.1,311.8,201.5,311.8,171.8,311.8z"/>
<path class="st2" d="M141.3,287.8c-19.1,0-38.3,0-57.4,0c-1.8,0-3.7,0.1-5.5-0.2c-4.9-0.8-8.4-4.9-8.4-9.7c-0.1-4.8,3.3-8.9,8.2-9.8
	c1.8-0.3,3.6-0.2,5.5-0.2c38.4,0,76.9,0,115.3,0c1.2,0,2.3,0,3.5,0c6.1,0.4,10.2,4.5,10.2,10.1c-0.1,5.4-4.1,9.4-10,9.8
	c-1.5,0.1-3,0.1-4.5,0.1C179.3,287.8,160.3,287.8,141.3,287.8z"/>
<path class="st2" d="M658.3,240c3,0,6-0.2,9,0c6.4,0.6,11.1,5.8,11,12.1c-0.1,6-4.7,11.2-10.9,11.6c-6.3,0.4-12.7,0.4-19,0
	c-6.4-0.4-11.1-5.8-11-12c0.1-6,4.7-11.1,10.9-11.6C651.7,239.7,655,240,658.3,240z"/>
<path class="st2" d="M658.2,291.8c-3.2,0-6.3,0.2-9.5,0c-6.5-0.5-11.2-5.6-11.2-11.9c0-6.2,4.7-11.5,11.2-11.9
	c6.1-0.3,12.3-0.3,18.5,0c6.5,0.3,11.2,5.6,11.2,11.8c0,6.2-4.7,11.4-11.2,11.9C664.2,292,661.2,291.8,658.2,291.8z"/>
<path class="st2" d="M50,263.8c-6.6,0-12.1-5.5-12-12.1c0.1-6.4,5.5-11.7,11.9-11.7c6.6,0,12.1,5.5,12,12.1
	C61.8,258.5,56.4,263.8,50,263.8z"/>
<path class="st2" d="M310.1,397.8c-73.9,0-147.9,0-221.8,0c-2,0-4,0.1-6,0c-7.2-0.3-12.2-5.2-12.3-11.8c-0.1-6.6,4.9-11.7,12.1-12.1
	c1.3-0.1,2.7,0,4,0c149.5,0,299,0,448.6,0c10.2,0,15.7,4.2,15.8,11.9c0.1,7.8-5.6,12.1-16.1,12.1
	C459.6,397.8,384.8,397.8,310.1,397.8z"/>
<path class="st2" d="M172.3,445.8c-29.5,0-58.9,0-88.4,0c-1.8,0-3.7,0.1-5.5-0.2c-5.1-0.8-8.5-4.8-8.5-9.6c0-5.1,3.6-9.2,8.7-10
	c1.8-0.3,3.7-0.2,5.5-0.2c58.8,0,117.5,0,176.3,0c9.5,0,14.1,3.4,14.2,10.2c0,6.5-4.7,9.8-13.9,9.8
	C231.3,445.8,201.8,445.8,172.3,445.8z"/>
<path class="st2" d="M141.9,401.8c19,0,37.9,0,56.9,0c1.7,0,3.3-0.1,5,0.1c5.2,0.7,8.9,4.7,9,9.8c0.1,5-3.5,9.2-8.7,9.9
	c-1.6,0.2-3.3,0.2-5,0.2c-38.4,0-76.9,0-115.3,0c-0.3,0-0.7,0-1,0c-8.1-0.1-12.8-3.8-12.7-10.1c0.1-6.2,4.6-9.8,12.5-9.8
	c16.1,0,32.3,0,48.4,0C134.6,401.8,138.2,401.8,141.9,401.8z"/>
<path class="st2" d="M657.6,425.7c-3,0-6,0.2-9,0c-6.5-0.5-11.2-5.7-11.2-11.9c0-6.2,4.7-11.5,11.2-11.8c6.1-0.3,12.3-0.3,18.5,0
	c6.5,0.4,11.2,5.6,11.2,11.9c0,6.2-4.7,11.3-11.2,11.8C663.9,425.9,660.8,425.7,657.6,425.7z"/>
<path class="st2" d="M657.6,397.7c-3,0-6,0.2-9,0c-6.5-0.5-11.2-5.6-11.2-11.9c0-6.2,4.7-11.5,11.2-11.9c6.1-0.3,12.3-0.3,18.5,0
	c6.5,0.3,11.2,5.6,11.2,11.8c0,6.2-4.7,11.4-11.2,11.9C664,397.9,660.8,397.7,657.6,397.7z"/>
<path class="st2" d="M61.9,385.8c0,6.6-5.6,12.1-12.2,11.9c-6.4-0.2-11.7-5.5-11.6-12c0-6.6,5.6-12.1,12.2-11.9
	C56.7,374,61.9,379.4,61.9,385.8z"/>
<rect x="1" y="64.9" width="9" height="544.8"/>
<rect x="706.3" y="64.8" width="9" height="544.8"/>
<rect x="1" y="60.7" class="st3" width="714.2" height="4.3"/>
<linearGradient id="SVGID_1_" gradientUnits="userSpaceOnUse" x1="358.1682" y1="609.6185" x2="358.1682" y2="519.7184">
	<stop  offset="0" style="stop-color:#000000"/>
	<stop  offset="0.6886" style="stop-color:#020202;stop-opacity:0.3114"/>
	<stop  offset="0.9364" style="stop-color:#090909;stop-opacity:6.363809e-02"/>
	<stop  offset="1" style="stop-color:#0C0C0C;stop-opacity:0"/>
</linearGradient>
<rect y="519.7" class="st4" width="716.3" height="89.9"/>
</svg>
